<svg fill="none" height="92" viewBox="0 0 92 92" width="92" xmlns="http://www.w3.org/2000/svg" xmlns:xlink="http://www.w3.org/1999/xlink"><linearGradient id="a" gradientUnits="userSpaceOnUse" x1="45.9174" x2="45.9174" y1="25.6377" y2="66.8405"><stop offset="0" stop-color="#fb5971"/><stop offset="1" stop-color="#fa253d"/></linearGradient><path clip-rule="evenodd" d="m38.85 42.2547c7.8659-2.7112 9.2048-9.7738 8.2006-16.2674 0-.2343.2008-.4017.4017-.3347 7.5312 3.6819 15.9996 11.7152 15.9996 23.7651 0 9.2383-7.163 17.4055-17.5728 17.4055-3.7145.1689-7.3795-.904-10.4165-3.0494-3.0371-2.1454-5.2731-5.2411-6.3553-8.7985s-.9489-7.3739.3789-10.8471 3.7744-6.4053 6.9538-8.3336c.2008-.1339.4686 0 .4686.2343.1004 1.2385.4351 4.3514 1.8075 6.2258z" fill="url(#a)" fill-rule="evenodd"/></svg>